<?xml version="1.0" standalone="no"?><!DOCTYPE svg PUBLIC "-//W3C//DTD SVG 1.1//EN" "http://www.w3.org/Graphics/SVG/1.1/DTD/svg11.dtd"><svg t="1767263313149" class="icon" viewBox="0 0 1024 1024" version="1.1" xmlns="http://www.w3.org/2000/svg" p-id="12873" xmlns:xlink="http://www.w3.org/1999/xlink" width="200" height="200"><path d="M513.483 62.012C343.35 60.535 203.936 197.29 202.46 367.423c-1.477 170.132 135.278 309.546 305.41 311.023h106.924V562.957H513.483c-106.333 1.181-193.762-83.885-194.944-190.513-1.181-106.628 83.885-193.762 190.513-194.943h4.43c106.333 0 192.581 86.248 193.172 192.58v283.85c0 105.446-85.952 191.398-191.104 192.58-50.508-0.296-98.653-20.676-134.097-56.416l-81.817 81.818c56.71 57.006 133.506 89.496 213.847 90.087h4.135c168.065-2.363 303.048-138.823 303.934-306.888v-292.71c-4.135-166.884-140.89-300.095-308.07-300.39z" p-id="12874"></path></svg>