<?xml version="1.0" standalone="no"?><!DOCTYPE svg PUBLIC "-//W3C//DTD SVG 1.1//EN" "http://www.w3.org/Graphics/SVG/1.1/DTD/svg11.dtd"><svg t="1767263739690" class="icon" viewBox="0 0 1024 1024" version="1.1" xmlns="http://www.w3.org/2000/svg" p-id="19718" id="mx_n_1767263739691" xmlns:xlink="http://www.w3.org/1999/xlink" width="200" height="200"><path d="M136.533333 153.6h72.567467v701.474133H136.533333z" fill="#000000" p-id="19719"></path><path d="M209.1008 153.6h139.093333v139.093333h-139.093333z" fill="#515151" p-id="19720" data-spm-anchor-id="a313x.search_index.0.i23.51fd3a81LYTM8c" class="selected"></path><path d="M487.2704 576.904533h139.093333v139.093334h-139.093333zM209.1008 576.904533h139.093333v139.093334h-139.093333zM765.44 576.904533H904.533333v139.093334h-139.093333z" fill="#515151" p-id="19721" data-spm-anchor-id="a313x.search_index.0.i26.51fd3a81LYTM8c" class="selected"></path><path d="M209.1008 715.997867h139.093333v139.093333h-139.093333zM765.44 715.997867H904.533333v139.093333h-139.093333z" fill="#515151" p-id="19722" data-spm-anchor-id="a313x.search_index.0.i27.51fd3a81LYTM8c" class="selected"></path><path d="M209.1008 292.676267h278.1696v139.093333H209.1008zM626.363733 292.676267H904.533333v139.093333H626.363733z" fill="#515151" p-id="19723" data-spm-anchor-id="a313x.search_index.0.i22.51fd3a81LYTM8c" class="selected"></path><path d="M209.1008 431.7696H904.533333v145.134933H209.1008z" fill="#515151" p-id="19724" data-spm-anchor-id="a313x.search_index.0.i25.51fd3a81LYTM8c" class="selected"></path><path d="M765.44 153.6H904.533333v139.093333h-139.093333z" fill="#515151" p-id="19725" data-spm-anchor-id="a313x.search_index.0.i24.51fd3a81LYTM8c" class="selected"></path><path d="M692.872533 153.6h72.567467v139.093333h-72.567467zM553.796267 292.676267h72.567466v139.093333h-72.567466zM414.702933 576.904533h72.567467v139.093334h-72.567467zM692.872533 576.904533h72.567467v278.1696h-72.567467z" fill="#000000" p-id="19726"></path></svg>