<?xml version="1.0" standalone="no"?><!DOCTYPE svg PUBLIC "-//W3C//DTD SVG 1.1//EN" "http://www.w3.org/Graphics/SVG/1.1/DTD/svg11.dtd"><svg t="1767263881296" class="icon" viewBox="0 0 1024 1024" version="1.1" xmlns="http://www.w3.org/2000/svg" p-id="21715" xmlns:xlink="http://www.w3.org/1999/xlink" width="200" height="200"><path d="M225.28 39.384615l260.647385 240.088616V39.975385h50.688v240.64L798.404923 39.384615v273.723077H905.846154v394.870154h-107.126154v243.751385l-262.104615-230.281846v232.920615h-50.688v-229.100308l-260.332308 229.218462v-246.547692H118.153846V313.186462h107.126154V39.384615z m222.404923 323.859693H168.881231v294.596923h56.713846v-92.947693l222.089846-201.64923z m-171.323077 223.901538v255.527385l209.526154-184.556308v-261.316923l-209.526154 190.345846z m261.710769 68.529231v-259.111385l209.644308 190.345846v121.068308h0.275692v132.096l-209.92-184.398769z m260.647385 2.205538h56.398769V363.244308h-276.716307l220.317538 199.561846v95.074461zM747.677538 313.107692V154.624l-172.032 158.523077h172.032z m-299.638153 0H276.086154V154.624l171.992615 158.523077z" p-id="21716" fill="#000000"></path></svg>