<?xml version="1.0" standalone="no"?><!DOCTYPE svg PUBLIC "-//W3C//DTD SVG 1.1//EN" "http://www.w3.org/Graphics/SVG/1.1/DTD/svg11.dtd"><svg t="1767264049297" class="icon" viewBox="0 0 1024 1024" version="1.1" xmlns="http://www.w3.org/2000/svg" p-id="25410" xmlns:xlink="http://www.w3.org/1999/xlink" width="200" height="200"><path d="M739.776 160H284.224A124.224 124.224 0 0 0 160 284.224v455.552A124.224 124.224 0 0 0 284.224 864h455.552A124.224 124.224 0 0 0 864 739.776V284.224A124.224 124.224 0 0 0 739.776 160z" fill="#515151" p-id="25411" data-spm-anchor-id="a313x.search_index.0.i46.51fd3a81LYTM8c" class=""></path><path d="M662.144 496.48a124.224 124.224 0 1 0 0-248.48 124.224 124.224 0 0 0 0 248.48zM662.144 786.368a124.224 124.224 0 1 0 0-248.48 124.224 124.224 0 0 0 0 248.48zM372.224 786.368a124.224 124.224 0 1 0 0-248.48 124.224 124.224 0 0 0 0 248.48z" fill="#D3D1D1" p-id="25412"></path><path d="M372.224 496.48a124.224 124.224 0 1 0 0-248.48 124.224 124.224 0 0 0 0 248.48z" fill="#000000" p-id="25413" data-spm-anchor-id="a313x.search_index.0.i47.51fd3a81LYTM8c" class="selected"></path></svg>